<?xml version="1.0" encoding="UTF-8" standalone="no"?><svg xmlns="http://www.w3.org/2000/svg" xmlns:xlink="http://www.w3.org/1999/xlink" contentStyleType="text/css" height="240px" preserveAspectRatio="none" style="width:93px;height:240px;background:#FFFFFF;" version="1.1" viewBox="0 0 93 240" width="93px" zoomAndPan="magnify"><defs/><g><!--MD5=[fad60533a75ae18f5b11198a70d18332]
class Zbook--><g id="elem_Zbook"><rect codeLine="2" fill="#F1F1F1" height="83.2188" id="Zbook" rx="2.5" ry="2.5" style="stroke:#181818;stroke-width:0.5;" width="78" x="7.5" y="7"/><ellipse cx="25.65" cy="23" fill="#ADD1B2" rx="11" ry="11" style="stroke:#181818;stroke-width:1.0;"/><path d="M28.4156,18.875 Q28.5719,18.6563 28.7594,18.5469 Q28.9469,18.4375 29.1656,18.4375 Q29.5406,18.4375 29.775,18.7031 Q30.0094,18.9531 30.0094,19.5625 L30.0094,21.0156 Q30.0094,21.625 29.775,21.8906 Q29.5406,22.1563 29.1656,22.1563 Q28.8219,22.1563 28.6188,21.9531 Q28.4156,21.7656 28.3063,21.25 Q28.2594,20.8906 28.0719,20.7031 Q27.7438,20.3281 27.1344,20.1094 Q26.525,19.8906 25.9,19.8906 Q25.1344,19.8906 24.4938,20.2188 Q23.8688,20.5469 23.3688,21.2969 Q22.8844,22.0469 22.8844,23.0781 L22.8844,24.1719 Q22.8844,25.4063 23.775,26.2344 Q24.6656,27.0469 26.2594,27.0469 Q27.1969,27.0469 27.8531,26.7969 Q28.2438,26.6406 28.6656,26.2031 Q28.9313,25.9375 29.0719,25.8594 Q29.2281,25.7813 29.4313,25.7813 Q29.7594,25.7813 30.0094,26.0469 Q30.275,26.2969 30.275,26.6406 Q30.275,26.9844 29.9313,27.3906 Q29.4313,27.9688 28.6344,28.2969 Q27.5563,28.75 26.2594,28.75 Q24.7438,28.75 23.5406,28.125 Q22.5563,27.625 21.8688,26.5625 Q21.1813,25.4844 21.1813,24.2031 L21.1813,23.0469 Q21.1813,21.7188 21.7906,20.5781 Q22.4156,19.4219 23.5094,18.8125 Q24.6031,18.1875 25.8375,18.1875 Q26.5719,18.1875 27.2125,18.3594 Q27.8688,18.5156 28.4156,18.875 Z " fill="#000000"/><text fill="#000000" font-family="sans-serif" font-size="14" lengthAdjust="spacing" textLength="39" x="40.35" y="28.7285">Zbook</text><line style="stroke:#181818;stroke-width:0.5;" x1="8.5" x2="84.5" y1="39" y2="39"/><text fill="#000000" font-family="sans-serif" font-size="14" lengthAdjust="spacing" textLength="66" x="13.5" y="57.5332">Mouse * m</text><line style="stroke:#181818;stroke-width:0.5;" x1="8.5" x2="84.5" y1="64.6094" y2="64.6094"/><text fill="#000000" font-family="sans-serif" font-size="14" lengthAdjust="spacing" textLength="66" x="13.5" y="83.1426">void play()</text></g><!--MD5=[9d20eee4aed475d35a2e03a568297074]
class Mouse--><g id="elem_Mouse"><rect codeLine="7" fill="#F1F1F1" height="65.6094" id="Mouse" rx="2.5" ry="2.5" style="stroke:#181818;stroke-width:0.5;" width="79" x="7" y="168"/><ellipse cx="24.25" cy="184" fill="#ADD1B2" rx="11" ry="11" style="stroke:#181818;stroke-width:1.0;"/><path d="M27.0156,179.875 Q27.1719,179.6563 27.3594,179.5469 Q27.5469,179.4375 27.7656,179.4375 Q28.1406,179.4375 28.375,179.7031 Q28.6094,179.9531 28.6094,180.5625 L28.6094,182.0156 Q28.6094,182.625 28.375,182.8906 Q28.1406,183.1563 27.7656,183.1563 Q27.4219,183.1563 27.2188,182.9531 Q27.0156,182.7656 26.9063,182.25 Q26.8594,181.8906 26.6719,181.7031 Q26.3438,181.3281 25.7344,181.1094 Q25.125,180.8906 24.5,180.8906 Q23.7344,180.8906 23.0938,181.2188 Q22.4688,181.5469 21.9688,182.2969 Q21.4844,183.0469 21.4844,184.0781 L21.4844,185.1719 Q21.4844,186.4063 22.375,187.2344 Q23.2656,188.0469 24.8594,188.0469 Q25.7969,188.0469 26.4531,187.7969 Q26.8438,187.6406 27.2656,187.2031 Q27.5313,186.9375 27.6719,186.8594 Q27.8281,186.7813 28.0313,186.7813 Q28.3594,186.7813 28.6094,187.0469 Q28.875,187.2969 28.875,187.6406 Q28.875,187.9844 28.5313,188.3906 Q28.0313,188.9688 27.2344,189.2969 Q26.1563,189.75 24.8594,189.75 Q23.3438,189.75 22.1406,189.125 Q21.1563,188.625 20.4688,187.5625 Q19.7813,186.4844 19.7813,185.2031 L19.7813,184.0469 Q19.7813,182.7188 20.3906,181.5781 Q21.0156,180.4219 22.1094,179.8125 Q23.2031,179.1875 24.4375,179.1875 Q25.1719,179.1875 25.8125,179.3594 Q26.4688,179.5156 27.0156,179.875 Z " fill="#000000"/><text fill="#000000" font-family="sans-serif" font-size="14" lengthAdjust="spacing" textLength="42" x="38.75" y="189.7285">Mouse</text><line style="stroke:#181818;stroke-width:0.5;" x1="8" x2="85" y1="200" y2="200"/><line style="stroke:#181818;stroke-width:0.5;" x1="8" x2="85" y1="208" y2="208"/><text fill="#000000" font-family="sans-serif" font-size="14" lengthAdjust="spacing" textLength="67" x="13" y="226.5332">void click()</text></g><!--MD5=[1a7eb5f6911d94b176d987d7c65de91c]
reverse link Zbook to Mouse--><g id="link_Zbook_Mouse"><path codeLine="11" d="M46.5,103.27 C46.5,124.87 46.5,149.04 46.5,167.82 " fill="none" id="Zbook-backto-Mouse" style="stroke:#181818;stroke-width:1.0;"/><polygon fill="none" points="46.5,90.23,42.5,96.23,46.5,102.23,50.5,96.23,46.5,90.23" style="stroke:#181818;stroke-width:1.0;"/><text fill="#000000" font-family="sans-serif" font-size="13" lengthAdjust="spacing" textLength="26" x="47.5" y="134.4951">聚合</text></g><!--MD5=[72d1bb972e32625266be5270e4d7a7c5]
@startuml Aggregation

class Zbook{
    Mouse * m
    void play()
}

class Mouse{
    void click()
}

Zbook o- - Mouse : 聚合

@enduml

PlantUML version 1.2022.7(Tue Aug 23 01:01:30 CST 2022)
(GPL source distribution)
Java Runtime: OpenJDK Runtime Environment
JVM: OpenJDK 64-Bit Server VM
Default Encoding: Cp1252
Language: en
Country: US
--></g></svg>