<?xml version="1.0" encoding="UTF-8" standalone="no"?><svg xmlns="http://www.w3.org/2000/svg" xmlns:xlink="http://www.w3.org/1999/xlink" contentStyleType="text/css" height="258px" preserveAspectRatio="none" style="width:134px;height:258px;background:#FFFFFF;" version="1.1" viewBox="0 0 134 258" width="134px" zoomAndPan="magnify"><defs/><g><!--MD5=[db25027423b3b96a5b12184dc6d389a4]
class Computer--><g id="elem_Computer"><rect codeLine="2" fill="#F1F1F1" height="83.2188" id="Computer" rx="2.5" ry="2.5" style="stroke:#181818;stroke-width:0.5;" width="120" x="7" y="7"/><ellipse cx="33.7" cy="23" fill="#ADD1B2" rx="11" ry="11" style="stroke:#181818;stroke-width:1.0;"/><path d="M36.4656,18.875 Q36.6219,18.6563 36.8094,18.5469 Q36.9969,18.4375 37.2156,18.4375 Q37.5906,18.4375 37.825,18.7031 Q38.0594,18.9531 38.0594,19.5625 L38.0594,21.0156 Q38.0594,21.625 37.825,21.8906 Q37.5906,22.1563 37.2156,22.1563 Q36.8719,22.1563 36.6688,21.9531 Q36.4656,21.7656 36.3563,21.25 Q36.3094,20.8906 36.1219,20.7031 Q35.7938,20.3281 35.1844,20.1094 Q34.575,19.8906 33.95,19.8906 Q33.1844,19.8906 32.5438,20.2188 Q31.9188,20.5469 31.4188,21.2969 Q30.9344,22.0469 30.9344,23.0781 L30.9344,24.1719 Q30.9344,25.4063 31.825,26.2344 Q32.7156,27.0469 34.3094,27.0469 Q35.2469,27.0469 35.9031,26.7969 Q36.2938,26.6406 36.7156,26.2031 Q36.9813,25.9375 37.1219,25.8594 Q37.2781,25.7813 37.4813,25.7813 Q37.8094,25.7813 38.0594,26.0469 Q38.325,26.2969 38.325,26.6406 Q38.325,26.9844 37.9813,27.3906 Q37.4813,27.9688 36.6844,28.2969 Q35.6063,28.75 34.3094,28.75 Q32.7938,28.75 31.5906,28.125 Q30.6063,27.625 29.9188,26.5625 Q29.2313,25.4844 29.2313,24.2031 L29.2313,23.0469 Q29.2313,21.7188 29.8406,20.5781 Q30.4656,19.4219 31.5594,18.8125 Q32.6531,18.1875 33.8875,18.1875 Q34.6219,18.1875 35.2625,18.3594 Q35.9188,18.5156 36.4656,18.875 Z " fill="#000000"/><text fill="#000000" font-family="sans-serif" font-size="14" lengthAdjust="spacing" textLength="62" x="50.3" y="28.7285">Computer</text><line style="stroke:#181818;stroke-width:0.5;" x1="8" x2="126" y1="39" y2="39"/><text fill="#000000" font-family="sans-serif" font-size="14" lengthAdjust="spacing" textLength="57" x="13" y="57.5332">Mouse m</text><line style="stroke:#181818;stroke-width:0.5;" x1="8" x2="126" y1="64.6094" y2="64.6094"/><text fill="#000000" font-family="sans-serif" font-size="14" lengthAdjust="spacing" textLength="108" x="13" y="83.1426">virtual void play()</text></g><!--MD5=[fad60533a75ae18f5b11198a70d18332]
class Zbook--><g id="elem_Zbook"><rect codeLine="7" fill="#F1F1F1" height="83.2188" id="Zbook" rx="2.5" ry="2.5" style="stroke:#181818;stroke-width:0.5;" width="120" x="7" y="168"/><ellipse cx="44.05" cy="184" fill="#ADD1B2" rx="11" ry="11" style="stroke:#181818;stroke-width:1.0;"/><path d="M46.8156,179.875 Q46.9719,179.6563 47.1594,179.5469 Q47.3469,179.4375 47.5656,179.4375 Q47.9406,179.4375 48.175,179.7031 Q48.4094,179.9531 48.4094,180.5625 L48.4094,182.0156 Q48.4094,182.625 48.175,182.8906 Q47.9406,183.1563 47.5656,183.1563 Q47.2219,183.1563 47.0188,182.9531 Q46.8156,182.7656 46.7063,182.25 Q46.6594,181.8906 46.4719,181.7031 Q46.1438,181.3281 45.5344,181.1094 Q44.925,180.8906 44.3,180.8906 Q43.5344,180.8906 42.8938,181.2188 Q42.2688,181.5469 41.7688,182.2969 Q41.2844,183.0469 41.2844,184.0781 L41.2844,185.1719 Q41.2844,186.4063 42.175,187.2344 Q43.0656,188.0469 44.6594,188.0469 Q45.5969,188.0469 46.2531,187.7969 Q46.6438,187.6406 47.0656,187.2031 Q47.3313,186.9375 47.4719,186.8594 Q47.6281,186.7813 47.8313,186.7813 Q48.1594,186.7813 48.4094,187.0469 Q48.675,187.2969 48.675,187.6406 Q48.675,187.9844 48.3313,188.3906 Q47.8313,188.9688 47.0344,189.2969 Q45.9563,189.75 44.6594,189.75 Q43.1438,189.75 41.9406,189.125 Q40.9563,188.625 40.2688,187.5625 Q39.5813,186.4844 39.5813,185.2031 L39.5813,184.0469 Q39.5813,182.7188 40.1906,181.5781 Q40.8156,180.4219 41.9094,179.8125 Q43.0031,179.1875 44.2375,179.1875 Q44.9719,179.1875 45.6125,179.3594 Q46.2688,179.5156 46.8156,179.875 Z " fill="#000000"/><text fill="#000000" font-family="sans-serif" font-size="14" lengthAdjust="spacing" textLength="39" x="62.95" y="189.7285">Zbook</text><line style="stroke:#181818;stroke-width:0.5;" x1="8" x2="126" y1="200" y2="200"/><text fill="#000000" font-family="sans-serif" font-size="14" lengthAdjust="spacing" textLength="73" x="13" y="218.5332">KeyBoard k</text><line style="stroke:#181818;stroke-width:0.5;" x1="8" x2="126" y1="225.6094" y2="225.6094"/><text fill="#000000" font-family="sans-serif" font-size="14" lengthAdjust="spacing" textLength="108" x="13" y="244.1426">virtual void play()</text></g><!--MD5=[2ebf97a0d3731d508432168cde985aeb]
reverse link Computer to Zbook--><g id="link_Computer_Zbook"><path codeLine="12" d="M67,110.1 C67,129.38 67,150.24 67,167.76 " fill="none" id="Computer-backto-Zbook" style="stroke:#181818;stroke-width:1.0;"/><polygon fill="none" points="60,110.03,67,90.03,74,110.03,60,110.03" style="stroke:#181818;stroke-width:1.0;"/><text fill="#000000" font-family="sans-serif" font-size="13" lengthAdjust="spacing" textLength="26" x="68" y="134.4951">继承</text></g><!--MD5=[d8b88feaea65fc96a380bb071860d0e5]
@startuml  Derived

class Computer{
    Mouse m
    virtual void play()
}

class Zbook{
    KeyBoard k
    virtual void play()
}

Computer <|- - Zbook : 继承

@enduml

PlantUML version 1.2022.7(Tue Aug 23 01:01:30 CST 2022)
(GPL source distribution)
Java Runtime: OpenJDK Runtime Environment
JVM: OpenJDK 64-Bit Server VM
Default Encoding: Cp1252
Language: en
Country: US
--></g></svg>